# xmcd
#
# Track frame offsets:
#	150
#	37921
#	83752
#	136691
#
# Disc length: 2129 seconds
#
# Revision: 0
# Processed by: cddbd v1.5.2PL0 Copyright (c) Steve Scherf et al.
# Submitted via: audiograbber 1.83.01
#
DISCID=22084f04
DTITLE=Grateful Dead - 93-09-30 Boston Garden, Boston MA
DYEAR=1900
DGENRE=
TTITLE0=The Other One
TTITLE1=Wharf Rat
TTITLE2=Not Fade Away
TTITLE3=Brokedown Palace
EXTD=
EXTT0=
EXTT1=
EXTT2=
EXTT3=
PLAYORDER=
